<mxfile host="app.diagrams.net" agent="Mozilla/5.0 (Windows NT 10.0; Win64; x64) AppleWebKit/537.36 (KHTML, like Gecko) Chrome/127.0.0.0 Safari/537.36" version="24.7.5">
  <diagram name="Page-1" id="wlt29CJvtXZfvoS2OQX4">
    <mxGraphModel dx="1434" dy="738" grid="1" gridSize="10" guides="1" tooltips="1" connect="1" arrows="1" fold="1" page="1" pageScale="1" pageWidth="850" pageHeight="1100" math="0" shadow="0">
      <root>
        <mxCell id="0" />
        <mxCell id="1" parent="0" />
        <mxCell id="pW67mqAoqXdST9CGZowI-9" value="Power On" style="strokeWidth=2;html=1;shape=mxgraph.flowchart.terminator;whiteSpace=wrap;" parent="1" vertex="1">
          <mxGeometry x="582.5" y="130" width="85" height="40" as="geometry" />
        </mxCell>
        <mxCell id="pW67mqAoqXdST9CGZowI-10" value="Power Off" style="strokeWidth=2;html=1;shape=mxgraph.flowchart.terminator;whiteSpace=wrap;" parent="1" vertex="1">
          <mxGeometry x="560.85" y="1410" width="85" height="40" as="geometry" />
        </mxCell>
        <mxCell id="pW67mqAoqXdST9CGZowI-11" value="Instantiate object&amp;nbsp;&lt;span style=&quot;background-color: rgb(255, 255, 255); color: rgb(78, 91, 97); font-family: Consolas, &amp;quot;Courier New&amp;quot;, monospace; font-size: 14px; white-space: pre;&quot;&gt;Zumo32U4Motors, &lt;/span&gt;&lt;span style=&quot;color: rgb(78, 91, 97); font-family: Consolas, &amp;quot;Courier New&amp;quot;, monospace; font-size: 14px; white-space: pre; background-color: rgb(255, 255, 255);&quot;&gt;Zumo32U4ButtonA, &lt;/span&gt;&lt;span style=&quot;background-color: rgb(255, 255, 255); color: rgb(78, 91, 97); font-family: Consolas, &amp;quot;Courier New&amp;quot;, monospace; font-size: 14px; white-space: pre;&quot;&gt;Zumo32U4OLED, &lt;/span&gt;&lt;span style=&quot;background-color: rgb(255, 255, 255); color: rgb(78, 91, 97); font-family: Consolas, &amp;quot;Courier New&amp;quot;, monospace; font-size: 14px; white-space: pre;&quot;&gt;Zumo32U4LineSensors&lt;/span&gt;" style="rounded=1;whiteSpace=wrap;html=1;" parent="1" vertex="1">
          <mxGeometry x="291.25" y="230" width="667.5" height="40" as="geometry" />
        </mxCell>
        <mxCell id="pW67mqAoqXdST9CGZowI-13" value="Import library&amp;nbsp;&lt;span style=&quot;color: rgb(0, 92, 95); background-color: rgb(255, 255, 255); font-family: Consolas, &amp;quot;Courier New&amp;quot;, monospace; font-size: 14px; white-space: pre;&quot;&gt;Wire.h, &lt;/span&gt;&lt;span style=&quot;color: rgb(0, 92, 95); font-family: Consolas, &amp;quot;Courier New&amp;quot;, monospace; font-size: 14px; white-space: pre; background-color: rgb(255, 255, 255);&quot;&gt;Zumo32U4.h, &lt;/span&gt;&lt;span style=&quot;color: rgb(0, 92, 95); background-color: rgb(255, 255, 255); font-family: Consolas, &amp;quot;Courier New&amp;quot;, monospace; font-size: 14px; white-space: pre;&quot;&gt;Zumo32U4OLED.h&lt;/span&gt;&lt;span style=&quot;color: rgb(0, 92, 95); font-family: Consolas, &amp;quot;Courier New&amp;quot;, monospace; font-size: 14px; white-space: pre; background-color: rgb(255, 255, 255);&quot;&gt; &lt;/span&gt;&lt;span style=&quot;background-color: initial;&quot;&gt;&amp;nbsp;&lt;/span&gt;" style="rounded=1;whiteSpace=wrap;html=1;" parent="1" vertex="1">
          <mxGeometry x="291.25" y="180" width="667.5" height="40" as="geometry" />
        </mxCell>
        <mxCell id="pW67mqAoqXdST9CGZowI-15" value="" style="shape=process;whiteSpace=wrap;html=1;backgroundOutline=1;" parent="1" vertex="1">
          <mxGeometry x="180" y="330" width="890" height="260" as="geometry" />
        </mxCell>
        <mxCell id="pW67mqAoqXdST9CGZowI-20" value="Initialise the OLED" style="rounded=1;whiteSpace=wrap;html=1;" parent="1" vertex="1">
          <mxGeometry x="485.85" y="340" width="235" height="40" as="geometry" />
        </mxCell>
        <mxCell id="pW67mqAoqXdST9CGZowI-21" value="&amp;nbsp;Delay 1 second" style="strokeWidth=2;html=1;shape=mxgraph.flowchart.delay;whiteSpace=wrap;" parent="1" vertex="1">
          <mxGeometry x="545.85" y="540" width="125" height="40" as="geometry" />
        </mxCell>
        <mxCell id="pW67mqAoqXdST9CGZowI-22" value="&lt;font style=&quot;font-size: 26px;&quot;&gt;void loop()&lt;/font&gt;" style="text;strokeColor=none;align=right;fillColor=none;html=1;verticalAlign=middle;whiteSpace=wrap;rounded=0;" parent="1" vertex="1">
          <mxGeometry x="10" y="610" width="160" height="30" as="geometry" />
        </mxCell>
        <mxCell id="pW67mqAoqXdST9CGZowI-24" value="" style="shape=process;whiteSpace=wrap;html=1;backgroundOutline=1;" parent="1" vertex="1">
          <mxGeometry x="180" y="610" width="890" height="790" as="geometry" />
        </mxCell>
        <mxCell id="pW67mqAoqXdST9CGZowI-25" value="&lt;font style=&quot;font-size: 26px;&quot;&gt;void setup()&lt;/font&gt;" style="text;strokeColor=none;align=right;fillColor=none;html=1;verticalAlign=middle;whiteSpace=wrap;rounded=0;" parent="1" vertex="1">
          <mxGeometry x="5" y="480" width="170" height="30" as="geometry" />
        </mxCell>
        <mxCell id="pW67mqAoqXdST9CGZowI-26" value="speed = 0" style="rounded=1;whiteSpace=wrap;html=1;" parent="1" vertex="1">
          <mxGeometry x="304.93" y="640" width="155.07" height="40" as="geometry" />
        </mxCell>
        <mxCell id="pW67mqAoqXdST9CGZowI-27" value="if speed &amp;lt;= 100" style="strokeWidth=2;html=1;shape=mxgraph.flowchart.decision;whiteSpace=wrap;" parent="1" vertex="1">
          <mxGeometry x="311.68" y="690" width="148.32" height="100" as="geometry" />
        </mxCell>
        <mxCell id="pW67mqAoqXdST9CGZowI-28" value="speed = speed + 1" style="rounded=1;whiteSpace=wrap;html=1;" parent="1" vertex="1">
          <mxGeometry x="304.56" y="800" width="155.44" height="40" as="geometry" />
        </mxCell>
        <mxCell id="pW67mqAoqXdST9CGZowI-29" value="Motor Speed = speed" style="rounded=1;whiteSpace=wrap;html=1;" parent="1" vertex="1">
          <mxGeometry x="303.81" y="850" width="156.19" height="40" as="geometry" />
        </mxCell>
        <mxCell id="pW67mqAoqXdST9CGZowI-33" value="Start the timer" style="rounded=1;whiteSpace=wrap;html=1;" parent="1" vertex="1">
          <mxGeometry x="511.25" y="720" width="150.88" height="40" as="geometry" />
        </mxCell>
        <mxCell id="pW67mqAoqXdST9CGZowI-34" value="if speed &amp;gt; 0" style="strokeWidth=2;html=1;shape=mxgraph.flowchart.decision;whiteSpace=wrap;" parent="1" vertex="1">
          <mxGeometry x="741.97" y="1090" width="144.13" height="100" as="geometry" />
        </mxCell>
        <mxCell id="pW67mqAoqXdST9CGZowI-35" value="speed = speed - 1" style="rounded=1;whiteSpace=wrap;html=1;" parent="1" vertex="1">
          <mxGeometry x="734.85" y="1200" width="151.25" height="40" as="geometry" />
        </mxCell>
        <mxCell id="pW67mqAoqXdST9CGZowI-36" value="Motor Speed = speed" style="rounded=1;whiteSpace=wrap;html=1;" parent="1" vertex="1">
          <mxGeometry x="734.1" y="1250" width="152" height="40" as="geometry" />
        </mxCell>
        <mxCell id="pW67mqAoqXdST9CGZowI-42" value="" style="endArrow=classic;html=1;rounded=0;entryX=0;entryY=0.5;entryDx=0;entryDy=0;entryPerimeter=0;exitX=0.5;exitY=1;exitDx=0;exitDy=0;exitPerimeter=0;" parent="1" source="y0BK3Rz_D3oJLZsrZm_5-6" target="pW67mqAoqXdST9CGZowI-34" edge="1">
          <mxGeometry width="50" height="50" relative="1" as="geometry">
            <mxPoint x="360.1" y="1340" as="sourcePoint" />
            <mxPoint x="344.1" y="1170" as="targetPoint" />
            <Array as="points">
              <mxPoint x="811.1" y="1380" />
              <mxPoint x="704.1" y="1380" />
              <mxPoint x="704.1" y="1140" />
            </Array>
          </mxGeometry>
        </mxCell>
        <mxCell id="pW67mqAoqXdST9CGZowI-43" value="" style="endArrow=classic;html=1;rounded=0;exitX=1;exitY=0.5;exitDx=0;exitDy=0;exitPerimeter=0;entryX=0;entryY=0.5;entryDx=0;entryDy=0;" parent="1" source="pW67mqAoqXdST9CGZowI-27" target="pW67mqAoqXdST9CGZowI-33" edge="1">
          <mxGeometry width="50" height="50" relative="1" as="geometry">
            <mxPoint x="520" y="900" as="sourcePoint" />
            <mxPoint x="570" y="850" as="targetPoint" />
          </mxGeometry>
        </mxCell>
        <mxCell id="pW67mqAoqXdST9CGZowI-47" value="True" style="edgeLabel;html=1;align=center;verticalAlign=middle;resizable=0;points=[];" parent="pW67mqAoqXdST9CGZowI-43" vertex="1" connectable="0">
          <mxGeometry x="-0.1393" y="-1" relative="1" as="geometry">
            <mxPoint as="offset" />
          </mxGeometry>
        </mxCell>
        <mxCell id="pW67mqAoqXdST9CGZowI-44" value="" style="endArrow=classic;html=1;rounded=0;exitX=1;exitY=0.5;exitDx=0;exitDy=0;exitPerimeter=0;entryX=0.5;entryY=0;entryDx=0;entryDy=0;entryPerimeter=0;" parent="1" edge="1" target="pW67mqAoqXdST9CGZowI-34" source="y0BK3Rz_D3oJLZsrZm_5-10">
          <mxGeometry width="50" height="50" relative="1" as="geometry">
            <mxPoint x="667.48" y="1139.5" as="sourcePoint" />
            <mxPoint x="718.48" y="1139.5" as="targetPoint" />
            <Array as="points">
              <mxPoint x="815" y="1070" />
            </Array>
          </mxGeometry>
        </mxCell>
        <mxCell id="pW67mqAoqXdST9CGZowI-48" value="True" style="edgeLabel;html=1;align=center;verticalAlign=middle;resizable=0;points=[];" parent="pW67mqAoqXdST9CGZowI-44" vertex="1" connectable="0">
          <mxGeometry x="-0.1765" y="1" relative="1" as="geometry">
            <mxPoint y="1" as="offset" />
          </mxGeometry>
        </mxCell>
        <mxCell id="pW67mqAoqXdST9CGZowI-45" value="" style="endArrow=classic;html=1;rounded=0;exitX=0.5;exitY=1;exitDx=0;exitDy=0;entryX=0;entryY=0.5;entryDx=0;entryDy=0;entryPerimeter=0;" parent="1" target="pW67mqAoqXdST9CGZowI-27" edge="1">
          <mxGeometry width="50" height="50" relative="1" as="geometry">
            <mxPoint x="381.905" y="940" as="sourcePoint" />
            <mxPoint x="570" y="850" as="targetPoint" />
            <Array as="points">
              <mxPoint x="382" y="970" />
              <mxPoint x="280" y="970" />
              <mxPoint x="280" y="740" />
            </Array>
          </mxGeometry>
        </mxCell>
        <mxCell id="y0BK3Rz_D3oJLZsrZm_5-1" value="Define&amp;nbsp;&lt;span style=&quot;font-family: Consolas, &amp;quot;Courier New&amp;quot;, monospace; font-size: 14px; white-space: pre; color: rgb(211, 84, 0);&quot;&gt;LINE_THRESHOLD&lt;/span&gt;&lt;span style=&quot;background-color: rgb(255, 255, 255); color: rgb(78, 91, 97); font-family: Consolas, &amp;quot;Courier New&amp;quot;, monospace; font-size: 14px; white-space: pre;&quot;&gt; &lt;/span&gt;&lt;span style=&quot;font-family: Consolas, &amp;quot;Courier New&amp;quot;, monospace; font-size: 14px; white-space: pre; color: rgb(0, 92, 95);&quot;&gt;10&lt;/span&gt;&lt;span style=&quot;background-color: initial;&quot;&gt;&amp;nbsp;&lt;/span&gt;" style="rounded=1;whiteSpace=wrap;html=1;" vertex="1" parent="1">
          <mxGeometry x="291.25" y="280" width="667.5" height="40" as="geometry" />
        </mxCell>
        <mxCell id="y0BK3Rz_D3oJLZsrZm_5-2" value="Initialise the Line Sensors" style="rounded=1;whiteSpace=wrap;html=1;" vertex="1" parent="1">
          <mxGeometry x="485.85" y="390" width="235" height="40" as="geometry" />
        </mxCell>
        <mxCell id="y0BK3Rz_D3oJLZsrZm_5-3" value="Initialise the Serial Communication" style="rounded=1;whiteSpace=wrap;html=1;" vertex="1" parent="1">
          <mxGeometry x="485.85" y="440" width="235" height="40" as="geometry" />
        </mxCell>
        <mxCell id="y0BK3Rz_D3oJLZsrZm_5-4" value="Calibrate the sensors" style="rounded=1;whiteSpace=wrap;html=1;" vertex="1" parent="1">
          <mxGeometry x="485.85" y="490" width="235" height="40" as="geometry" />
        </mxCell>
        <mxCell id="y0BK3Rz_D3oJLZsrZm_5-5" value="Delay 2 milliseconds" style="strokeWidth=2;html=1;shape=mxgraph.flowchart.delay;whiteSpace=wrap;" vertex="1" parent="1">
          <mxGeometry x="319.61" y="900" width="132.47" height="40" as="geometry" />
        </mxCell>
        <mxCell id="y0BK3Rz_D3oJLZsrZm_5-6" value="Delay 2 milliseconds" style="strokeWidth=2;html=1;shape=mxgraph.flowchart.delay;whiteSpace=wrap;" vertex="1" parent="1">
          <mxGeometry x="744.4200000000001" y="1300" width="132.47" height="40" as="geometry" />
        </mxCell>
        <mxCell id="y0BK3Rz_D3oJLZsrZm_5-8" value="Read the sensors" style="rounded=1;whiteSpace=wrap;html=1;" vertex="1" parent="1">
          <mxGeometry x="512.53" y="920" width="150.88" height="40" as="geometry" />
        </mxCell>
        <mxCell id="y0BK3Rz_D3oJLZsrZm_5-10" value="if sensor value &amp;gt;&lt;div&gt;&lt;span style=&quot;color: rgb(211, 84, 0); font-family: Consolas, &amp;quot;Courier New&amp;quot;, monospace; font-size: 14px; white-space: pre;&quot;&gt;LINE_THRESHOLD&lt;/span&gt;&lt;br&gt;&lt;/div&gt;" style="strokeWidth=2;html=1;shape=mxgraph.flowchart.decision;whiteSpace=wrap;" vertex="1" parent="1">
          <mxGeometry x="515.0899999999999" y="1020" width="148.32" height="100" as="geometry" />
        </mxCell>
        <mxCell id="y0BK3Rz_D3oJLZsrZm_5-11" value="Display the output" style="strokeWidth=2;html=1;shape=mxgraph.flowchart.display;whiteSpace=wrap;" vertex="1" parent="1">
          <mxGeometry x="520.4399999999999" y="970" width="126.69" height="40" as="geometry" />
        </mxCell>
        <mxCell id="y0BK3Rz_D3oJLZsrZm_5-12" value="" style="endArrow=classic;html=1;rounded=0;exitX=1;exitY=0.5;exitDx=0;exitDy=0;exitPerimeter=0;entryX=1;entryY=0.5;entryDx=0;entryDy=0;entryPerimeter=0;" edge="1" parent="1" source="pW67mqAoqXdST9CGZowI-34" target="pW67mqAoqXdST9CGZowI-10">
          <mxGeometry width="50" height="50" relative="1" as="geometry">
            <mxPoint x="698.75" y="1030" as="sourcePoint" />
            <mxPoint x="748.75" y="980" as="targetPoint" />
            <Array as="points">
              <mxPoint x="958.75" y="1140" />
              <mxPoint x="960" y="1430" />
            </Array>
          </mxGeometry>
        </mxCell>
        <mxCell id="y0BK3Rz_D3oJLZsrZm_5-13" value="False" style="edgeLabel;html=1;align=center;verticalAlign=middle;resizable=0;points=[];" vertex="1" connectable="0" parent="y0BK3Rz_D3oJLZsrZm_5-12">
          <mxGeometry x="-0.9157" y="-1" relative="1" as="geometry">
            <mxPoint as="offset" />
          </mxGeometry>
        </mxCell>
        <mxCell id="y0BK3Rz_D3oJLZsrZm_5-14" value="if timer &amp;gt; 3 seconds" style="strokeWidth=2;html=1;shape=mxgraph.flowchart.decision;whiteSpace=wrap;" vertex="1" parent="1">
          <mxGeometry x="512.53" y="770" width="148.32" height="100" as="geometry" />
        </mxCell>
        <mxCell id="y0BK3Rz_D3oJLZsrZm_5-15" value="" style="endArrow=classic;html=1;rounded=0;exitX=1;exitY=0.5;exitDx=0;exitDy=0;exitPerimeter=0;entryX=0.5;entryY=0;entryDx=0;entryDy=0;entryPerimeter=0;" edge="1" parent="1" source="y0BK3Rz_D3oJLZsrZm_5-14" target="pW67mqAoqXdST9CGZowI-34">
          <mxGeometry width="50" height="50" relative="1" as="geometry">
            <mxPoint x="700" y="1020" as="sourcePoint" />
            <mxPoint x="750" y="970" as="targetPoint" />
            <Array as="points">
              <mxPoint x="810" y="820" />
            </Array>
          </mxGeometry>
        </mxCell>
        <mxCell id="y0BK3Rz_D3oJLZsrZm_5-16" value="True" style="edgeLabel;html=1;align=center;verticalAlign=middle;resizable=0;points=[];" vertex="1" connectable="0" parent="y0BK3Rz_D3oJLZsrZm_5-15">
          <mxGeometry x="-0.7623" y="-2" relative="1" as="geometry">
            <mxPoint as="offset" />
          </mxGeometry>
        </mxCell>
        <mxCell id="y0BK3Rz_D3oJLZsrZm_5-17" value="" style="endArrow=classic;html=1;rounded=0;exitX=0.5;exitY=1;exitDx=0;exitDy=0;exitPerimeter=0;entryX=0.5;entryY=0;entryDx=0;entryDy=0;" edge="1" parent="1" source="y0BK3Rz_D3oJLZsrZm_5-14" target="y0BK3Rz_D3oJLZsrZm_5-8">
          <mxGeometry width="50" height="50" relative="1" as="geometry">
            <mxPoint x="700" y="1010" as="sourcePoint" />
            <mxPoint x="750" y="960" as="targetPoint" />
          </mxGeometry>
        </mxCell>
        <mxCell id="y0BK3Rz_D3oJLZsrZm_5-18" value="False" style="edgeLabel;html=1;align=center;verticalAlign=middle;resizable=0;points=[];" vertex="1" connectable="0" parent="y0BK3Rz_D3oJLZsrZm_5-17">
          <mxGeometry x="-0.2002" relative="1" as="geometry">
            <mxPoint as="offset" />
          </mxGeometry>
        </mxCell>
        <mxCell id="y0BK3Rz_D3oJLZsrZm_5-19" value="" style="endArrow=classic;html=1;rounded=0;exitX=0.5;exitY=1;exitDx=0;exitDy=0;exitPerimeter=0;entryX=0;entryY=0.5;entryDx=0;entryDy=0;entryPerimeter=0;" edge="1" parent="1" source="y0BK3Rz_D3oJLZsrZm_5-10" target="y0BK3Rz_D3oJLZsrZm_5-14">
          <mxGeometry width="50" height="50" relative="1" as="geometry">
            <mxPoint x="700" y="1210" as="sourcePoint" />
            <mxPoint x="750" y="1160" as="targetPoint" />
            <Array as="points">
              <mxPoint x="589" y="1170" />
              <mxPoint x="480" y="1170" />
              <mxPoint x="480" y="820" />
            </Array>
          </mxGeometry>
        </mxCell>
        <mxCell id="y0BK3Rz_D3oJLZsrZm_5-20" value="False" style="edgeLabel;html=1;align=center;verticalAlign=middle;resizable=0;points=[];" vertex="1" connectable="0" parent="y0BK3Rz_D3oJLZsrZm_5-19">
          <mxGeometry x="-0.9151" y="1" relative="1" as="geometry">
            <mxPoint as="offset" />
          </mxGeometry>
        </mxCell>
      </root>
    </mxGraphModel>
  </diagram>
</mxfile>
